<svg width="370" height="100" viewBox="0 0 370 100" fill="none" xmlns="http://www.w3.org/2000/svg">
<path d="M208.265 88.5742C203.06 87.1061 199.349 84.7705 197.134 81.5674C194.945 78.3643 193.851 74.4938 193.851 69.9561V61.748C193.851 58.7585 193.17 56.4362 191.809 54.7812C190.447 53.0996 188.352 52.2588 185.522 52.2588V46.373C188.352 46.373 190.447 45.5589 191.809 43.9307C193.17 42.2757 193.851 39.9401 193.851 36.9238V28.6758C193.851 24.1113 194.945 20.2409 197.134 17.0645C199.349 13.8613 203.06 11.5257 208.265 10.0576L209.866 14.7422C206.93 15.6764 204.835 17.3581 203.58 19.7871C202.352 22.1895 201.738 25.1523 201.738 28.6758V36.9238C201.738 39.7266 201.178 42.1956 200.057 44.3311C198.936 46.4665 197.241 48.1348 194.972 49.3359C197.241 50.5638 198.936 52.2588 200.057 54.4209C201.178 56.5563 201.738 58.9987 201.738 61.748V69.9561C201.738 73.4795 202.352 76.429 203.58 78.8047C204.835 81.207 206.93 82.8887 209.866 83.8496L208.265 88.5742Z" fill="#F37726"/>
<path d="M225.429 68.564C221.687 68.564 218.876 67.1317 216.997 64.2671L216.513 68H211.948V30.2681L207.57 29.5161V26.1055H217.238V42.3799C218.151 41.0908 219.279 40.1061 220.622 39.4258C221.983 38.7454 223.567 38.4053 225.375 38.4053C227.775 38.4053 229.816 39.0588 231.499 40.3657C233.199 41.6548 234.497 43.472 235.393 45.8174C236.306 48.1628 236.762 50.8931 236.762 54.0083V54.5723C236.762 57.3652 236.306 59.8091 235.393 61.9038C234.497 63.9985 233.199 65.6367 231.499 66.8184C229.816 67.9821 227.792 68.564 225.429 68.564ZM224.086 64.2671C226.575 64.2671 228.419 63.3809 229.619 61.6084C230.836 59.8359 231.445 57.4906 231.445 54.5723V54.0083C231.445 50.6603 230.836 47.939 229.619 45.8442C228.401 43.7495 226.539 42.7021 224.033 42.7021C222.403 42.7021 221.025 43.096 219.897 43.8838C218.787 44.6715 217.901 45.7279 217.238 47.0527V59.8896C217.901 61.2324 218.796 62.2977 219.924 63.0854C221.07 63.8732 222.457 64.2671 224.086 64.2671ZM254.97 68.564C252.285 68.564 249.966 67.9373 248.015 66.6841C246.081 65.4129 244.586 63.6673 243.53 61.4473C242.473 59.2093 241.945 56.658 241.945 53.7935V53.2026C241.945 50.3381 242.473 47.7957 243.53 45.5757C244.586 43.3377 246.081 41.5832 248.015 40.312C249.966 39.0409 252.267 38.4053 254.917 38.4053C257.602 38.4053 259.912 39.0409 261.845 40.312C263.797 41.5832 265.301 43.3288 266.357 45.5488C267.413 47.7689 267.941 50.3201 267.941 53.2026V53.7935C267.941 56.6759 267.413 59.2362 266.357 61.4741C265.301 63.6942 263.806 65.4308 261.872 66.6841C259.938 67.9373 257.638 68.564 254.97 68.564ZM254.97 64.4282C257.477 64.4282 259.383 63.4256 260.69 61.4204C261.997 59.4152 262.651 56.8729 262.651 53.7935V53.2026C262.651 51.1616 262.355 49.3444 261.765 47.751C261.192 46.1396 260.332 44.8774 259.187 43.9644C258.041 43.0334 256.617 42.5679 254.917 42.5679C253.234 42.5679 251.819 43.0334 250.673 43.9644C249.528 44.8774 248.668 46.1396 248.095 47.751C247.522 49.3444 247.236 51.1616 247.236 53.2026V53.7935C247.236 56.8729 247.88 59.4152 249.169 61.4204C250.476 63.4256 252.41 64.4282 254.97 64.4282ZM286.123 68.564C283.437 68.564 281.118 67.9373 279.167 66.6841C277.233 65.4129 275.738 63.6673 274.682 61.4473C273.626 59.2093 273.098 56.658 273.098 53.7935V53.2026C273.098 50.3381 273.626 47.7957 274.682 45.5757C275.738 43.3377 277.233 41.5832 279.167 40.312C281.118 39.0409 283.419 38.4053 286.069 38.4053C288.754 38.4053 291.064 39.0409 292.998 40.312C294.949 41.5832 296.453 43.3288 297.509 45.5488C298.566 47.7689 299.094 50.3201 299.094 53.2026V53.7935C299.094 56.6759 298.566 59.2362 297.509 61.4741C296.453 63.6942 294.958 65.4308 293.024 66.6841C291.091 67.9373 288.79 68.564 286.123 68.564ZM286.123 64.4282C288.629 64.4282 290.536 63.4256 291.843 61.4204C293.15 59.4152 293.803 56.8729 293.803 53.7935V53.2026C293.803 51.1616 293.508 49.3444 292.917 47.751C292.344 46.1396 291.485 44.8774 290.339 43.9644C289.193 43.0334 287.77 42.5679 286.069 42.5679C284.386 42.5679 282.972 43.0334 281.826 43.9644C280.68 44.8774 279.82 46.1396 279.248 47.751C278.675 49.3444 278.388 51.1616 278.388 53.2026V53.7935C278.388 56.8729 279.033 59.4152 280.322 61.4204C281.629 63.4256 283.562 64.4282 286.123 64.4282ZM302.37 68V64.6162L306.748 63.8643V30.2681L302.37 29.5161V26.1055H312.038V53.0952L322.324 42.8633L322.458 42.7021L319.343 42.353V38.9424H331.857V42.353L328.125 43.0513L319.96 51.269L329.978 63.9717L334.167 64.6162V68H321.035V64.6162L323.989 64.2671L323.908 64.1597L316.55 54.6797L312.038 59.2183V63.8643L316.416 64.6162V68H302.37Z" fill="#616161"/>
<path d="M332.683 88.5742L331.081 83.8496C333.964 82.8887 336.033 81.207 337.287 78.8047C338.542 76.429 339.169 73.4795 339.169 69.9561V61.748C339.169 58.8919 339.77 56.3962 340.971 54.2607C342.172 52.1253 344.027 50.4837 346.536 49.3359C344.027 48.2415 342.172 46.6266 340.971 44.4912C339.77 42.3558 339.169 39.8333 339.169 36.9238V28.6758C339.169 25.1523 338.542 22.1895 337.287 19.7871C336.033 17.3581 333.964 15.6764 331.081 14.7422L332.683 10.0576C337.861 11.5257 341.545 13.8613 343.733 17.0645C345.949 20.2409 347.057 24.1113 347.057 28.6758V36.9238C347.057 39.9401 347.737 42.2757 349.099 43.9307C350.46 45.5589 352.569 46.373 355.425 46.373V52.2588C352.569 52.2588 350.46 53.0996 349.099 54.7812C347.737 56.4362 347.057 58.7585 347.057 61.748V69.9561C347.057 74.4938 345.949 78.3643 343.733 81.5674C341.545 84.7705 337.861 87.1061 332.683 88.5742Z" fill="#F37726"/>
<path d="M19.47 34.45V28.73H14.795V34.45H19.47ZM19.47 71.575V39.565H14.795V70.805C14.795 72.2717 14.6117 73.28 14.245 73.83C13.8783 74.4167 13.1817 74.71 12.155 74.71H11.165C11.0183 74.71 10.89 74.6917 10.78 74.655C10.6333 74.655 10.4683 74.6367 10.285 74.6V78.615C11.0183 78.7617 11.8067 78.835 12.65 78.835C14.74 78.835 16.39 78.2483 17.6 77.075C18.8467 75.9383 19.47 74.105 19.47 71.575ZM50.2524 68V39.565H45.5774V55.625C45.5774 56.9083 45.394 58.1 45.0274 59.2C44.6974 60.2633 44.1841 61.1983 43.4874 62.005C42.7907 62.8117 41.9107 63.435 40.8474 63.875C39.8207 64.315 38.5924 64.535 37.1624 64.535C35.3657 64.535 33.954 64.0217 32.9274 62.995C31.9007 61.9683 31.3874 60.575 31.3874 58.815V39.565H26.7124V58.265C26.7124 59.805 26.859 61.2167 27.1524 62.5C27.4824 63.7467 28.0324 64.8283 28.8024 65.745C29.5724 66.6617 30.5807 67.3767 31.8274 67.89C33.0741 68.3667 34.6324 68.605 36.5024 68.605C38.5924 68.605 40.4074 68.2017 41.9474 67.395C43.4874 66.5517 44.7524 65.25 45.7424 63.49H45.8524V68H50.2524ZM57.4389 39.565V78.835H62.1139V64.205H62.2239C62.7372 65.0483 63.3606 65.7633 64.0939 66.35C64.8639 66.9 65.6706 67.34 66.5139 67.67C67.3572 68 68.2006 68.2383 69.0439 68.385C69.9239 68.5317 70.7122 68.605 71.4089 68.605C73.5722 68.605 75.4606 68.22 77.0739 67.45C78.7239 66.68 80.0806 65.635 81.1439 64.315C82.2439 62.9583 83.0506 61.3817 83.5639 59.585C84.1139 57.7883 84.3889 55.8817 84.3889 53.865C84.3889 51.8483 84.1139 49.9417 83.5639 48.145C83.0139 46.3483 82.1889 44.7717 81.0889 43.415C80.0256 42.0217 78.6689 40.9217 77.0189 40.115C75.4056 39.3083 73.4989 38.905 71.2989 38.905C69.3189 38.905 67.5039 39.2717 65.8539 40.005C64.2039 40.7017 62.9939 41.8383 62.2239 43.415H62.1139V39.565H57.4389ZM79.4389 53.535C79.4389 54.9283 79.2922 56.285 78.9989 57.605C78.7056 58.925 78.2289 60.0983 77.5689 61.125C76.9089 62.1517 76.0289 62.9767 74.9289 63.6C73.8656 64.2233 72.5272 64.535 70.9139 64.535C69.3006 64.535 67.9256 64.2417 66.7889 63.655C65.6522 63.0317 64.7172 62.225 63.9839 61.235C63.2872 60.245 62.7739 59.1083 62.4439 57.825C62.1139 56.505 61.9489 55.1483 61.9489 53.755C61.9489 52.435 62.0956 51.1333 62.3889 49.85C62.7189 48.5667 63.2322 47.43 63.9289 46.44C64.6256 45.4133 65.5239 44.5883 66.6239 43.965C67.7239 43.3417 69.0622 43.03 70.6389 43.03C72.1422 43.03 73.4439 43.3233 74.5439 43.91C75.6806 44.4967 76.5972 45.285 77.2939 46.275C78.0272 47.265 78.5589 48.4017 78.8889 49.685C79.2556 50.9317 79.4389 52.215 79.4389 53.535ZM101.041 71.795C100.491 73.1883 99.9414 74.3617 99.3914 75.315C98.8781 76.2683 98.2914 77.0383 97.6314 77.625C97.0081 78.2483 96.2931 78.6883 95.4864 78.945C94.7164 79.2383 93.8181 79.385 92.7914 79.385C92.2414 79.385 91.6914 79.3483 91.1414 79.275C90.5914 79.2017 90.0598 79.0733 89.5464 78.89V74.6C89.9498 74.7833 90.4081 74.93 90.9214 75.04C91.4714 75.1867 91.9298 75.26 92.2964 75.26C93.2498 75.26 94.0381 75.0217 94.6614 74.545C95.3214 74.105 95.8164 73.4633 96.1464 72.62L98.0714 67.835L86.7964 39.565H92.0764L100.381 62.83H100.491L108.466 39.565H113.416L101.041 71.795ZM123.866 39.565V31.04H119.191V39.565H114.351V43.69H119.191V61.785C119.191 63.105 119.32 64.1683 119.576 64.975C119.833 65.7817 120.218 66.405 120.731 66.845C121.281 67.285 121.978 67.5967 122.821 67.78C123.701 67.9267 124.746 68 125.956 68H129.531V63.875H127.386C126.653 63.875 126.048 63.8567 125.571 63.82C125.131 63.7467 124.783 63.6183 124.526 63.435C124.27 63.2517 124.086 62.995 123.976 62.665C123.903 62.335 123.866 61.895 123.866 61.345V43.69H129.531V39.565H123.866ZM154.47 51.06H138.135C138.208 49.96 138.447 48.9333 138.85 47.98C139.253 46.99 139.803 46.1283 140.5 45.395C141.197 44.6617 142.022 44.0933 142.975 43.69C143.965 43.25 145.065 43.03 146.275 43.03C147.448 43.03 148.512 43.25 149.465 43.69C150.455 44.0933 151.298 44.6617 151.995 45.395C152.728 46.0917 153.297 46.935 153.7 47.925C154.14 48.915 154.397 49.96 154.47 51.06ZM158.98 58.98H154.36C153.957 60.85 153.113 62.2433 151.83 63.16C150.583 64.0767 148.97 64.535 146.99 64.535C145.45 64.535 144.112 64.2783 142.975 63.765C141.838 63.2517 140.903 62.5733 140.17 61.73C139.437 60.85 138.905 59.86 138.575 58.76C138.245 57.6233 138.098 56.4317 138.135 55.185H159.42C159.493 53.4617 159.328 51.6467 158.925 49.74C158.558 47.8333 157.862 46.0733 156.835 44.46C155.845 42.8467 154.507 41.5267 152.82 40.5C151.17 39.4367 149.08 38.905 146.55 38.905C144.607 38.905 142.81 39.2717 141.16 40.005C139.547 40.7383 138.135 41.765 136.925 43.085C135.752 44.405 134.835 45.9633 134.175 47.76C133.515 49.5567 133.185 51.5367 133.185 53.7C133.258 55.8633 133.57 57.8617 134.12 59.695C134.707 61.5283 135.568 63.105 136.705 64.425C137.842 65.745 139.235 66.7717 140.885 67.505C142.572 68.2383 144.552 68.605 146.825 68.605C150.052 68.605 152.728 67.7983 154.855 66.185C156.982 64.5717 158.357 62.17 158.98 58.98ZM164.101 39.565V68H168.776V55.35C168.776 53.5167 168.959 51.9033 169.326 50.51C169.693 49.08 170.279 47.87 171.086 46.88C171.893 45.89 172.956 45.1383 174.276 44.625C175.596 44.1117 177.191 43.855 179.061 43.855V38.905C176.531 38.8317 174.441 39.345 172.791 40.445C171.141 41.545 169.748 43.25 168.611 45.56H168.501V39.565H164.101Z" fill="#616161"/>
</svg>
